<svg xmlns="http://www.w3.org/2000/svg" width="20" height="15" fill="none"><mask id="flags_sy_a" width="20" height="15" x="0" y="0" maskUnits="userSpaceOnUse"><path fill="#fff" d="M0 0h20v15H0z"/></mask><g fill-rule="evenodd" clip-rule="evenodd" mask="url(#flags_sy_a)"><path fill="#F7FCFF" d="M0 0h20v15H0V0z"/><path fill="#409100" d="M0 0h20v5H0V0z"/><path fill="#272727" d="M0 10h20v5H0v-5z"/><polygon fill="#E31D1C" points="5,6.25 5.281,7.114 6.189,7.114 5.454,7.648 5.735,8.511 5,7.978 4.265,8.511 4.546,7.648 3.811,7.114 4.719,7.114"/><polygon fill="#E31D1C" points="10,6.25 10.281,7.114 11.189,7.114 10.454,7.648 10.735,8.511 10,7.978 9.265,8.511 9.546,7.648 8.811,7.114 9.719,7.114"/><polygon fill="#E31D1C" points="15,6.25 15.281,7.114 16.189,7.114 15.454,7.648 15.735,8.511 15,7.978 14.265,8.511 14.546,7.648 13.811,7.114 14.719,7.114"/></g></svg>